# Blender 4.2.5 LTS
# www.blender.org
mtllib square.mtl
o Plane
v -2.000000 0.621282 2.000000
v 2.000000 0.621282 2.000000
v -2.000000 0.621282 -2.000000
v 2.000000 0.621282 -2.000000
v -2.000000 0.013447 0.000000
v 0.000000 0.013447 2.000000
v 2.000000 0.013447 0.000000
v 0.000000 0.013447 -2.000000
v 0.000000 -0.504799 0.000000
v -2.000000 0.155260 1.000000
v 1.000000 0.155260 2.000000
v 2.000000 0.155260 -1.000000
v -1.000000 0.155260 -2.000000
v -2.000000 0.155260 -1.000000
v -1.000000 0.155260 2.000000
v 2.000000 0.155260 1.000000
v 1.000000 0.155260 -2.000000
v 0.000000 -0.381608 -1.000000
v 0.000000 -0.381608 1.000000
v -1.000000 -0.381608 0.000000
v 1.000000 -0.381608 0.000000
v 1.000000 -0.254454 1.000000
v -1.000000 -0.254454 1.000000
v -1.000000 -0.254454 -1.000000
v 1.000000 -0.254454 -1.000000
vn 0.3723 0.8502 -0.3723
vn -0.3723 0.8502 -0.3723
vn 0.3723 0.8502 0.3723
vn -0.3723 0.8502 0.3723
vn 0.3733 0.9277 -0.0000
vn -0.0000 0.9277 -0.3733
vn -0.3733 0.9277 -0.0000
vn -0.0000 0.9277 0.3733
vn -0.0000 1.0000 -0.0000
vn 0.3745 0.8905 -0.2584
vn -0.2584 0.8905 -0.3745
vn -0.3745 0.8905 0.2584
vn 0.2584 0.8905 0.3745
vn 0.3745 0.8905 0.2584
vn 0.2584 0.8905 -0.3745
vn -0.3745 0.8905 -0.2584
vn -0.2584 0.8905 0.3745
vn -0.0000 0.9687 0.2483
vn -0.0000 0.9687 -0.2483
vn 0.2483 0.9687 -0.0000
vn -0.2483 0.9687 -0.0000
vn -0.2490 0.9360 -0.2490
vn 0.2490 0.9360 -0.2490
vn 0.2490 0.9360 0.2490
vn -0.2490 0.9360 0.2490
vt 0.750000 0.750000
vt 0.750000 1.000000
vt 1.000000 1.000000
vt 1.000000 0.750000
vt 0.250000 0.750000
vt 0.250000 1.000000
vt 0.500000 1.000000
vt 0.500000 0.750000
vt 0.250000 0.250000
vt 0.250000 0.500000
vt 0.500000 0.500000
vt 0.500000 0.250000
vt 0.750000 0.250000
vt 0.750000 0.500000
vt 1.000000 0.500000
vt 1.000000 0.250000
vt 0.500000 0.000000
vt 0.750000 0.000000
vt 1.000000 0.000000
vt 0.000000 0.250000
vt 0.000000 0.500000
vt 0.000000 0.000000
vt 0.250000 0.000000
vt 0.000000 0.750000
vt 0.000000 1.000000
s 1
f 25/1/25 12/4/12 4/3/4 17/2/17
f 24/5/24 18/8/18 8/7/8 13/6/13
f 23/9/23 19/12/19 9/11/9 20/10/20
f 22/13/22 16/16/16 7/15/7 21/14/21
f 19/12/19 22/13/22 21/14/21 9/11/9
f 6/17/6 11/18/11 22/13/22 19/12/19
f 11/18/11 2/19/2 16/16/16 22/13/22
f 10/20/10 23/9/23 20/10/20 5/21/5
f 1/22/1 15/23/15 23/9/23 10/20/10
f 15/23/15 6/17/6 19/12/19 23/9/23
f 14/24/14 24/5/24 13/6/13 3/25/3
f 5/21/5 20/10/20 24/5/24 14/24/14
f 20/10/20 9/11/9 18/8/18 24/5/24
f 18/8/18 25/1/25 17/2/17 8/7/8
f 9/11/9 21/14/21 25/1/25 18/8/18
f 21/14/21 7/15/7 12/4/12 25/1/25
